<?xml version="1.0" encoding="UTF-8"?>
<svg viewBox="0 0 455 329" version="1.1" xmlns="http://www.w3.org/2000/svg" xmlns:xlink="http://www.w3.org/1999/xlink">
    <g id="Page-1" stroke="none" stroke-width="1" fill="none" fill-rule="evenodd">
        <g id="Artboard" fill="#77BCB1">
            <g id="Group" transform="translate(203.000000, 25.000000)">
                <path d="M239.154786,180.774386 C246.413982,193.992624 258.18191,193.995455 265.442661,180.774386 L272.654786,167.641861 C279.913982,154.423623 279.915536,132.995455 272.654786,119.774386 L265.442661,106.641861 C258.183465,93.4236226 246.415536,93.4207922 239.154786,106.641861 L231.942661,119.774386 C224.683465,132.992624 224.68191,154.420792 231.942661,167.641861 L239.154786,180.774386 Z" id="Oval-2"></path>
                <path d="M52.6979615,175.12165 C54.2897559,171.006056 59.1402082,167.214979 63.5253782,166.67585 C63.5253782,166.67585 88.9956953,163.265607 102.890034,163.265607 C116.784373,163.265607 133.329969,166.366208 133.329969,166.366208 C137.68158,167.086111 143.133104,170.701202 145.364173,174.497203 C145.364173,174.497203 147.79936,177.634636 147.79936,180.316082 C147.79936,182.997528 145.540641,185.594866 145.540641,185.594866 C143.148484,189.309336 137.666168,191.737979 133.314159,191.055546 C133.314159,191.055546 114.471108,187.75761 102.890034,187.75761 C91.3089603,187.75761 63.5070798,191.347249 63.5070798,191.347249 C59.1291631,191.884765 53.6162631,189.316086 51.4117576,185.493226 C51.4117576,185.493226 50.38545,184.787098 50.38545,182.645677 C50.38545,180.504256 52.6979615,175.12165 52.6979615,175.12165 Z" id="Rectangle" transform="translate(99.092405, 177.341933) rotate(-25.000000) translate(-99.092405, -177.341933) "></path>
                <path d="M147.471298,129.488926 C149.025983,125.370883 153.831107,121.583251 158.232283,121.053599 C158.232283,121.053599 173.559132,118.965237 183.236085,118.965237 C192.913037,118.965237 202.044511,120.762814 202.044511,120.762814 C206.396327,121.46407 211.824146,125.067194 213.923323,128.950314 C213.923323,128.950314 214.513962,128.972796 214.513962,130.840335 C214.513962,132.707875 214.065517,132.362098 214.065517,132.362098 C211.778315,136.139134 206.39043,138.62553 202.017422,137.958709 C202.017422,137.958709 191.301924,136.023116 183.236085,136.023116 C175.170246,136.023116 158.212811,138.238924 158.212811,138.238924 C153.835122,138.770278 148.350231,136.179424 146.668359,132.462822 C146.668359,132.462822 146.668359,133.954252 146.668359,132.462822 C146.668359,130.971392 147.471298,129.488926 147.471298,129.488926 Z" id="Rectangle-Copy" transform="translate(180.591160, 128.636633) rotate(-85.000000) translate(-180.591160, -128.636633) "></path>
                <path d="M193.663002,31.9437548 C183.654704,37.7251228 174.265224,43.7359576 174.265224,43.7359576 C170.518756,46.0778276 167.724932,51.5635997 168.021601,55.9663163 C168.021601,55.9663163 168.200542,61.8219231 169.105545,63.76271 C170.010549,65.7034968 171.239122,65.9097294 171.239122,65.9097294 C174.852693,68.4427531 180.934648,68.4409146 184.675224,66.1035718 C184.675224,66.1035718 200.518475,56.065794 212.030787,49.7327127 C219.292819,58.4669073 227.211789,70.627305 227.211789,70.627305 C229.680752,74.2755812 235.195879,76.6287622 239.543917,75.8450128 C239.543917,75.8450128 242.983933,75.725555 244.945019,73.8968132 C246.906104,72.0680714 247.539883,68.1473643 247.539883,68.1473643 C248.794518,63.9267972 247.720498,57.4743186 245.27921,53.8007791 C245.27921,53.8007791 241.16517,47.3145937 235.574452,39.9729301 C242.296086,37.8247172 247.818645,36.3374528 247.818645,36.3374528 C252.051313,35.1167088 255.993589,30.5986836 256.591817,26.2212619 C256.591817,26.2212619 257.541229,22.9126976 256.408001,20.4824822 C255.274773,18.0522668 251.741808,16.237942 251.741808,16.237942 C248.115513,13.740487 241.646951,12.7680151 237.398808,13.9546316 C237.398808,13.9546316 227.668485,16.4504246 217.436127,20.2929145 C208.033087,11.6482774 197.446135,2.96010868 197.446135,2.96010868 C194.061162,0.120683679 187.980544,-0.841204489 183.884988,0.80145934 C183.884988,0.80145934 178.37127,2.78112366 176.805134,4.24156952 C175.238997,5.70201538 175.422508,6.93418702 175.422508,6.93418702 C174.130114,11.1536447 176.01129,16.9373593 179.390137,19.7725796 C179.390137,19.7725796 186.257743,25.4626356 193.663002,31.9437548 L193.663002,31.9437548 Z" id="Combined-Shape"></path>
                <path d="M48.4939098,16.8655876 C62.8566768,7.55098078 86.1405256,7.54916648 100.50609,16.8655876 L119.34762,29.0847823 C133.710387,38.3993891 140.608603,58.9861018 134.749647,75.0817905 L128.894065,91.1682095 C123.037602,107.257049 104.41269,120.29963 87.2893195,120.29963 L61.7106805,120.29963 C44.5894767,120.29963 25.9648909,107.263898 20.1059349,91.1682095 L14.2503533,75.0817905 C8.3938906,58.9929512 15.2868151,38.4012034 29.6523797,29.0847823 L48.4939098,16.8655876 Z" id="Polygon"></path>
                <path d="M133.396774,222.876089 C141.523884,207.198471 155.03973,207.036329 163.707875,222.428485 C163.707875,222.428485 167.355403,229.701561 173.287767,238.419841 C179.220131,247.138122 187.61818,257.111284 187.61818,257.111284 C198.700222,270.877229 193.435025,280.508258 175.830693,279.000215 C175.830693,279.000215 179.070961,278.706905 168.51287,278.706905 C157.954779,278.706905 120.505345,280.553798 120.505345,280.553798 C102.851608,281.372801 98.7777637,272.014165 111.111435,259.368335 C111.111435,259.368335 112.958148,258.599243 117.624354,251.741725 C122.290559,244.884208 133.396774,222.876089 133.396774,222.876089 Z" id="Triangle"></path>
            </g>
            <g id="Group-Copy-2" transform="translate(-250.000000, 25.000000)">
                <path d="M239.154786,180.774386 C246.413982,193.992624 258.18191,193.995455 265.442661,180.774386 L272.654786,167.641861 C279.913982,154.423623 279.915536,132.995455 272.654786,119.774386 L265.442661,106.641861 C258.183465,93.4236226 246.415536,93.4207922 239.154786,106.641861 L231.942661,119.774386 C224.683465,132.992624 224.68191,154.420792 231.942661,167.641861 L239.154786,180.774386 Z" id="Oval-2"></path>
                <path d="M193.663002,31.9437548 C183.654704,37.7251228 174.265224,43.7359576 174.265224,43.7359576 C170.518756,46.0778276 167.724932,51.5635997 168.021601,55.9663163 C168.021601,55.9663163 168.200542,61.8219231 169.105545,63.76271 C170.010549,65.7034968 171.239122,65.9097294 171.239122,65.9097294 C174.852693,68.4427531 180.934648,68.4409146 184.675224,66.1035718 C184.675224,66.1035718 200.518475,56.065794 212.030787,49.7327127 C219.292819,58.4669073 227.211789,70.627305 227.211789,70.627305 C229.680752,74.2755812 235.195879,76.6287622 239.543917,75.8450128 C239.543917,75.8450128 242.983933,75.725555 244.945019,73.8968132 C246.906104,72.0680714 247.539883,68.1473643 247.539883,68.1473643 C248.794518,63.9267972 247.720498,57.4743186 245.27921,53.8007791 C245.27921,53.8007791 241.16517,47.3145937 235.574452,39.9729301 C242.296086,37.8247172 247.818645,36.3374528 247.818645,36.3374528 C252.051313,35.1167088 255.993589,30.5986836 256.591817,26.2212619 C256.591817,26.2212619 257.541229,22.9126976 256.408001,20.4824822 C255.274773,18.0522668 251.741808,16.237942 251.741808,16.237942 C248.115513,13.740487 241.646951,12.7680151 237.398808,13.9546316 C237.398808,13.9546316 227.668485,16.4504246 217.436127,20.2929145 C208.033087,11.6482774 197.446135,2.96010868 197.446135,2.96010868 C194.061162,0.120683679 187.980544,-0.841204489 183.884988,0.80145934 C183.884988,0.80145934 178.37127,2.78112366 176.805134,4.24156952 C175.238997,5.70201538 175.422508,6.93418702 175.422508,6.93418702 C174.130114,11.1536447 176.01129,16.9373593 179.390137,19.7725796 C179.390137,19.7725796 186.257743,25.4626356 193.663002,31.9437548 L193.663002,31.9437548 Z" id="Combined-Shape"></path>
            </g>
            <g id="Group-Copy" transform="translate(114.585938, 165.179688) rotate(180.000000) translate(-114.585938, -165.179688) translate(-25.414062, 24.679688)">
                <path d="M239.154786,180.774386 C246.413982,193.992624 258.18191,193.995455 265.442661,180.774386 L272.654786,167.641861 C279.913982,154.423623 279.915536,132.995455 272.654786,119.774386 L265.442661,106.641861 C258.183465,93.4236226 246.415536,93.4207922 239.154786,106.641861 L231.942661,119.774386 C224.683465,132.992624 224.68191,154.420792 231.942661,167.641861 L239.154786,180.774386 Z" id="Oval-2"></path>
                <path d="M52.6979615,175.12165 C54.2897559,171.006056 59.1402082,167.214979 63.5253782,166.67585 C63.5253782,166.67585 88.9956953,163.265607 102.890034,163.265607 C116.784373,163.265607 133.329969,166.366208 133.329969,166.366208 C137.68158,167.086111 143.133104,170.701202 145.364173,174.497203 C145.364173,174.497203 147.79936,177.634636 147.79936,180.316082 C147.79936,182.997528 145.540641,185.594866 145.540641,185.594866 C143.148484,189.309336 137.666168,191.737979 133.314159,191.055546 C133.314159,191.055546 114.471108,187.75761 102.890034,187.75761 C91.3089603,187.75761 63.5070798,191.347249 63.5070798,191.347249 C59.1291631,191.884765 53.6162631,189.316086 51.4117576,185.493226 C51.4117576,185.493226 50.38545,184.787098 50.38545,182.645677 C50.38545,180.504256 52.6979615,175.12165 52.6979615,175.12165 Z" id="Rectangle" transform="translate(99.092405, 177.341933) rotate(-25.000000) translate(-99.092405, -177.341933) "></path>
                <path d="M147.471298,129.488926 C149.025983,125.370883 153.831107,121.583251 158.232283,121.053599 C158.232283,121.053599 173.559132,118.965237 183.236085,118.965237 C192.913037,118.965237 202.044511,120.762814 202.044511,120.762814 C206.396327,121.46407 211.824146,125.067194 213.923323,128.950314 C213.923323,128.950314 214.513962,128.972796 214.513962,130.840335 C214.513962,132.707875 214.065517,132.362098 214.065517,132.362098 C211.778315,136.139134 206.39043,138.62553 202.017422,137.958709 C202.017422,137.958709 191.301924,136.023116 183.236085,136.023116 C175.170246,136.023116 158.212811,138.238924 158.212811,138.238924 C153.835122,138.770278 148.350231,136.179424 146.668359,132.462822 C146.668359,132.462822 146.668359,133.954252 146.668359,132.462822 C146.668359,130.971392 147.471298,129.488926 147.471298,129.488926 Z" id="Rectangle-Copy" transform="translate(180.591160, 128.636633) rotate(-85.000000) translate(-180.591160, -128.636633) "></path>
                <path d="M193.663002,31.9437548 C183.654704,37.7251228 174.265224,43.7359576 174.265224,43.7359576 C170.518756,46.0778276 167.724932,51.5635997 168.021601,55.9663163 C168.021601,55.9663163 168.200542,61.8219231 169.105545,63.76271 C170.010549,65.7034968 171.239122,65.9097294 171.239122,65.9097294 C174.852693,68.4427531 180.934648,68.4409146 184.675224,66.1035718 C184.675224,66.1035718 200.518475,56.065794 212.030787,49.7327127 C219.292819,58.4669073 227.211789,70.627305 227.211789,70.627305 C229.680752,74.2755812 235.195879,76.6287622 239.543917,75.8450128 C239.543917,75.8450128 242.983933,75.725555 244.945019,73.8968132 C246.906104,72.0680714 247.539883,68.1473643 247.539883,68.1473643 C248.794518,63.9267972 247.720498,57.4743186 245.27921,53.8007791 C245.27921,53.8007791 241.16517,47.3145937 235.574452,39.9729301 C242.296086,37.8247172 247.818645,36.3374528 247.818645,36.3374528 C252.051313,35.1167088 255.993589,30.5986836 256.591817,26.2212619 C256.591817,26.2212619 257.541229,22.9126976 256.408001,20.4824822 C255.274773,18.0522668 251.741808,16.237942 251.741808,16.237942 C248.115513,13.740487 241.646951,12.7680151 237.398808,13.9546316 C237.398808,13.9546316 227.668485,16.4504246 217.436127,20.2929145 C208.033087,11.6482774 197.446135,2.96010868 197.446135,2.96010868 C194.061162,0.120683679 187.980544,-0.841204489 183.884988,0.80145934 C183.884988,0.80145934 178.37127,2.78112366 176.805134,4.24156952 C175.238997,5.70201538 175.422508,6.93418702 175.422508,6.93418702 C174.130114,11.1536447 176.01129,16.9373593 179.390137,19.7725796 C179.390137,19.7725796 186.257743,25.4626356 193.663002,31.9437548 L193.663002,31.9437548 Z" id="Combined-Shape"></path>
                <path d="M48.4939098,16.8655876 C62.8566768,7.55098078 86.1405256,7.54916648 100.50609,16.8655876 L119.34762,29.0847823 C133.710387,38.3993891 140.608603,58.9861018 134.749647,75.0817905 L128.894065,91.1682095 C123.037602,107.257049 104.41269,120.29963 87.2893195,120.29963 L61.7106805,120.29963 C44.5894767,120.29963 25.9648909,107.263898 20.1059349,91.1682095 L14.2503533,75.0817905 C8.3938906,58.9929512 15.2868151,38.4012034 29.6523797,29.0847823 L48.4939098,16.8655876 Z" id="Polygon"></path>
                <path d="M133.396774,222.876089 C141.523884,207.198471 155.03973,207.036329 163.707875,222.428485 C163.707875,222.428485 167.355403,229.701561 173.287767,238.419841 C179.220131,247.138122 187.61818,257.111284 187.61818,257.111284 C198.700222,270.877229 193.435025,280.508258 175.830693,279.000215 C175.830693,279.000215 179.070961,278.706905 168.51287,278.706905 C157.954779,278.706905 120.505345,280.553798 120.505345,280.553798 C102.851608,281.372801 98.7777637,272.014165 111.111435,259.368335 C111.111435,259.368335 112.958148,258.599243 117.624354,251.741725 C122.290559,244.884208 133.396774,222.876089 133.396774,222.876089 Z" id="Triangle"></path>
            </g>
        </g>
    </g>
</svg>