<svg width="334px" height="384px" viewBox="0 0 334 384" version="1.1" xmlns="http://www.w3.org/2000/svg">
    <g id="Illustrations" stroke="none" stroke-width="1" fill="none" fill-rule="evenodd">
        <g id="Chemex">
            <path d="M47.7814072,271.922542 L21.2908719,324.70515 C9.96710676,348.066997 21.8288001,367 47.7814072,367 L290.798703,367 C316.741059,367 328.569336,348.080418 317.195003,324.74193 L276.524561,241.292062 C256.717766,238.825905 248.180878,204.906262 224.268876,228.856636 C200.356874,252.80701 144.431404,261.772994 125,263.365639 C100.391392,265.382621 68.7488043,267.718599 47.7814072,271.922542 Z" id="liquid" fill="#7C5B51"></path>
            <path d="M317.195003,324.74193 C328.569336,348.080418 316.741059,367 290.798703,367 L47.7814072,367 C21.8288001,367 9.96710676,348.066997 21.2908719,324.70515 L112.002566,137.55956 C115.615371,130.10605 114.230767,118.918563 108.901436,112.561432 L41.639761,32.3278633 C34.5430644,23.8625182 37.7497429,17 48.7865468,17 L288.793564,17 C299.837321,17 303.040884,23.8579393 295.940349,32.3278633 L228.894813,112.30361 C223.574181,118.650364 222.205255,129.836699 225.829206,137.272523 L317.195003,324.74193 Z" id="vase" stroke="#393939" stroke-width="14"></path>
            <path d="M90.9464677,181 L112.002566,137.55956 C115.615371,130.10605 114.230767,118.918563 108.901436,112.561432 L80.7661031,79 L256.814007,79 L228.894813,112.30361 C223.574181,118.650364 222.205255,129.836699 225.829206,137.272523 L247.140394,181 L90.9464677,181 Z" id="holder" stroke="#393939" stroke-width="14" fill="#FC664F"></path>
        </g>
    </g>
</svg>