<?xml version="1.0" encoding="UTF-8"?>
<svg viewBox="0 0 182 103" version="1.1" xmlns="http://www.w3.org/2000/svg">
    <g id="Page-1" stroke="none" stroke-width="1" fill="none" fill-rule="evenodd">
        <g id="Artboard" fill="#FC664F">
            <g id="Group" transform="translate(-52.000000, 0.000000)">
                <path d="M52,103 C80.718807,103 104,79.718807 104,51 L90.9968197,51 C90.9989378,51.1664143 91,51.3330831 91,51.5 C91,72.7629629 73.7629629,90 52.5,90 C31.2370371,90 14,72.7629629 14,51.5 C14,51.3330831 14.0010622,51.1664143 14.0031803,51 L-2.84217094e-14,51 C-7.10542736e-15,79.718807 23.281193,103 52,103 Z" id="Combined-Shape"></path>
                <path d="M91,0 C91,28.718807 114.281193,52 143,52 C171.718807,52 195,28.718807 195,0 L181.99682,0 C181.998938,0.166414311 182,0.333083108 182,0.5 C182,21.7629629 164.762963,39 143.5,39 C122.237037,39 105,21.7629629 105,0.5 C105,0.333083108 105.001062,0.166414311 105.00318,2.77555756e-17 L91,0 Z" id="Combined-Shape-Copy" transform="translate(143.000000, 26.000000) rotate(-180.000000) translate(-143.000000, -26.000000) "></path>
            </g>
            <g id="Group-Copy" transform="translate(129.000000, 0.000000)">
                <path d="M52,103 C80.718807,103 104,79.718807 104,51 L90.9968197,51 C90.9989378,51.1664143 91,51.3330831 91,51.5 C91,72.7629629 73.7629629,90 52.5,90 C31.2370371,90 14,72.7629629 14,51.5 C14,51.3330831 14.0010622,51.1664143 14.0031803,51 L-2.84217094e-14,51 C-7.10542736e-15,79.718807 23.281193,103 52,103 Z" id="Combined-Shape"></path>
            </g>
        </g>
    </g>
</svg>