<?xml version="1.0" encoding="UTF-8"?>
<svg width="238px" height="424px" viewBox="0 0 238 424" version="1.1" xmlns="http://www.w3.org/2000/svg" xmlns:xlink="http://www.w3.org/1999/xlink">
    <!-- Generator: Sketch 43.1 (39012) - http://www.bohemiancoding.com/sketch -->
    <title>office-kit</title>
    <desc>Created with Sketch.</desc>
    <defs></defs>
    <g id="Illustrations" stroke="none" stroke-width="1" fill="none" fill-rule="evenodd">
        <g id="office-kit">
            <rect id="bottom" fill="#C7C7C7" x="11.5272109" y="55.2923077" width="99.1703457" height="368.707692" rx="22"></rect>
            <rect id="cap" fill="#D8D8D8" x="171.99034" y="10" width="42.0096603" height="45.2923077" rx="21.0048302"></rect>
            <rect id="handle" fill="#C7C7C7" x="43.8953098" y="29.1076923" width="170.10469" height="26.1846154" rx="13.0923077"></rect>
            <rect id="crank" fill="#D8D8D8" x="43.8953098" y="36.8923077" width="28.9246842" height="41.0461538" rx="14.4623421"></rect>
            <rect id="bottle-top" fill="#D8D8D8" x="11.5272109" y="55.2923077" width="99.1703457" height="233.538462" rx="22"></rect>
            <path d="M228.104686,371.966449 L228.104686,409.376378 C228.104686,417.465391 222.625706,424.022832 215.871177,424.022832 L70.2335095,424.022832 C63.4771288,424.022832 58,417.465806 58,409.376378 L58,382.394068 C69.4158964,382.905379 84.8037637,382.863044 101.253977,380.730604 C134.82081,376.379338 155.923265,365 177.878265,365 C201.017724,365 217.290971,368.355166 228.10469,371.96645 L228.104686,371.966449 Z" id="Combined-Shape" fill="#7C5B51"></path>
            <rect id="Rectangle" stroke="#555555" stroke-width="14" x="65" y="341" width="156.104686" height="75.9146273" rx="22"></rect>
            <path d="M83.6588986,231.302244 C75.470968,235.202759 88.1247699,280.564794 95.5838847,301.950889 C99.3385977,312.71606 118.265677,310.36449 136.839744,310.912998 C155.413811,311.461505 173.144896,315.01657 176.106034,307.76342 C182.068527,293.158611 211.150677,251.323684 204.694809,241.982545 C198.23894,232.641406 91.8468292,227.40173 83.6588986,231.302244 Z" id="Combined-Shape-Copy" fill="#FC664F"></path>
            <rect id="Rectangle-2" stroke="#555555" stroke-width="14" x="82" y="310" width="119.971338" height="19.3017138" rx="9.6508569"></rect>
        </g>
    </g>
</svg>