<svg viewBox="0 0 274 330" version="1.1" xmlns="http://www.w3.org/2000/svg">
    <g id="Illustrations" stroke="none" stroke-width="1" fill="none" fill-rule="evenodd">
        <g id="Water">
            <path d="M241,190 L241,307.990916 C241,320.146197 231.141014,330 219.000748,330 L21.9992519,330 C9.84940057,330 0,320.153683 0,307.9987 L0,190 C0,190 48.7424416,205.179687 70.5826982,205.179687 C105.982642,205.179687 113.948378,187.437338 158,183.167969 C202.051622,178.8986 241,190 241,190 Z" id="water" fill="#4FC6FC"></path>
            <path d="M254.032879,19.8965172 C254.657073,20.4238363 255.643426,21.2255215 256.926542,22.2172728 C259.246702,24.0105801 261.743884,25.8031474 264.340109,27.486813 C264.664018,27.6968702 264.9876,27.9039735 265.31079,28.1080115 C263.47389,30.873014 260.367182,34.583665 256.298514,38.9212486 C255.058072,40.2436772 253.739939,41.6121425 252.354302,43.01849 C248.858603,46.5664379 245.099599,50.1902902 241.339051,53.6880209 C240.021932,54.9130883 238.799743,56.03391 237.70471,57.0258713 C237.323154,57.3715124 236.985342,57.6758329 236.695291,57.9357708 C236.524105,58.089184 236.408653,58.1921436 236.352947,58.2415938 L234,60.3302919 L234,63.4765625 L234,307.990916 C234,316.277122 227.278103,323 219.000748,323 L21.9992519,323 C13.7139609,323 7,316.286257 7,307.9987 L7,23.0013002 C7,14.7199462 13.7213428,8 21.9992519,8 L219.000748,8 C229.4797,8 245.488809,13.456962 254.032879,19.8965172 Z" id="vase" stroke="#393939" stroke-width="14"></path>
        </g>
    </g>
</svg>